<svg width="18" height="24" viewBox="0 0 18 24" fill="none" xmlns="http://www.w3.org/2000/svg">
  <path
    d="M1.61254 23.325C1.28102 23.325 0.963075 23.1933 0.728655 22.9589C0.494234 22.7245 0.362538 22.4065 0.362538 22.075L0.175038 3.75C0.159987 3.37793 0.218642 3.00656 0.347631 2.65724C0.476621 2.30792 0.673398 1.98755 0.926646 1.71455C1.17989 1.44155 1.48462 1.22132 1.82329 1.06651C2.16195 0.911702 2.52789 0.825377 2.90004 0.8125L14.8875 0.75C15.2602 0.756509 15.6279 0.836366 15.9697 0.98501C16.3114 1.13365 16.6206 1.34817 16.8794 1.61631C17.1383 1.88445 17.3418 2.20096 17.4783 2.54776C17.6148 2.89456 17.6817 3.26486 17.675 3.6375L17.85 21.9625C17.8522 22.1815 17.7967 22.3973 17.6892 22.5882C17.5817 22.779 17.426 22.9383 17.2375 23.05C17.0475 23.1597 16.832 23.2175 16.6125 23.2175C16.3931 23.2175 16.1776 23.1597 15.9875 23.05L8.86254 19.1L2.25004 23.1375C2.05423 23.2469 1.83638 23.3109 1.61254 23.325ZM8.81254 16.3875C9.02974 16.3879 9.24382 16.4393 9.43754 16.5375L15.325 19.8L15.175 3.6125C15.175 3.3625 15.0125 3.1875 14.9125 3.2L2.91254 3.3125C2.81254 3.3125 2.67504 3.475 2.67504 3.725L2.82504 19.85L8.17504 16.5625C8.36934 16.4512 8.58867 16.391 8.81254 16.3875Z"
    fill="#828282" />
</svg>