<svg width="18" height="10" viewBox="0 0 18 10" fill="none" xmlns="http://www.w3.org/2000/svg">
  <path fill-rule="evenodd" clip-rule="evenodd"
    d="M1.05752 0.807518C1.11558 0.749314 1.18455 0.703135 1.26048 0.671627C1.33641 0.640119 1.41781 0.623901 1.50002 0.623901C1.58223 0.623901 1.66363 0.640119 1.73956 0.671627C1.81549 0.703135 1.88446 0.749314 1.94252 0.807518L9.00002 7.86627L16.0575 0.807518C16.1156 0.749408 16.1846 0.703313 16.2605 0.671864C16.3365 0.640415 16.4178 0.624229 16.5 0.624229C16.5822 0.624229 16.6636 0.640415 16.7395 0.671864C16.8154 0.703313 16.8844 0.749408 16.9425 0.807518C17.0006 0.865628 17.0467 0.934615 17.0782 1.01054C17.1096 1.08646 17.1258 1.16784 17.1258 1.25002C17.1258 1.3322 17.1096 1.41357 17.0782 1.4895C17.0467 1.56542 17.0006 1.63441 16.9425 1.69252L9.44252 9.19252C9.38446 9.25072 9.31549 9.2969 9.23956 9.32841C9.16363 9.35992 9.08223 9.37614 9.00002 9.37614C8.91781 9.37614 8.83641 9.35992 8.76048 9.32841C8.68455 9.2969 8.61558 9.25072 8.55752 9.19252L1.05752 1.69252C0.999315 1.63446 0.953136 1.56549 0.921628 1.48956C0.89012 1.41363 0.873901 1.33223 0.873901 1.25002C0.873901 1.16781 0.89012 1.08641 0.921628 1.01048C0.953136 0.934545 0.999315 0.865575 1.05752 0.807518Z"
    fill="#828282" />
</svg>