<svg width="18" height="18" viewBox="0 0 18 18" fill="none" xmlns="http://www.w3.org/2000/svg">
  <path
    d="M15.8749 9.47501V9.00001V8.51876L17.0749 7.46876C17.2961 7.27379 17.4413 7.0069 17.4847 6.71526C17.5282 6.42362 17.4672 6.126 17.3124 5.87501L15.8374 3.37501C15.7278 3.18517 15.5702 3.0275 15.3804 2.9178C15.1907 2.8081 14.9754 2.75024 14.7562 2.75001C14.6203 2.74897 14.4852 2.77008 14.3562 2.81251L12.8374 3.32501C12.5752 3.15076 12.3017 2.99417 12.0187 2.85626L11.6999 1.28126C11.6428 0.993513 11.4862 0.735035 11.2577 0.551074C11.0292 0.367113 10.7432 0.269389 10.4499 0.27501H7.52491C7.2316 0.269389 6.94565 0.367113 6.71713 0.551074C6.48861 0.735035 6.33207 0.993513 6.27491 1.28126L5.95616 2.85626C5.67112 2.99414 5.39552 3.15073 5.13116 3.32501L3.64366 2.78751C3.51322 2.75353 3.37815 2.74086 3.24366 2.75001C3.02446 2.75024 2.80917 2.8081 2.61939 2.9178C2.42961 3.0275 2.27202 3.18517 2.16241 3.37501L0.687414 5.87501C0.541531 6.12563 0.487321 6.41917 0.534069 6.70536C0.580818 6.99155 0.725616 7.25259 0.943664 7.44376L2.12491 8.52501V9.48126L0.943664 10.5313C0.719457 10.7238 0.570698 10.9895 0.523788 11.2812C0.476877 11.573 0.534849 11.8719 0.687414 12.125L2.16241 14.625C2.27202 14.8148 2.42961 14.9725 2.61939 15.0822C2.80917 15.1919 3.02446 15.2498 3.24366 15.25C3.37951 15.2511 3.51461 15.2299 3.64366 15.1875L5.16241 14.675C5.42463 14.8493 5.69815 15.0059 5.98116 15.1438L6.29991 16.7188C6.35707 17.0065 6.51361 17.265 6.74213 17.4489C6.97065 17.6329 7.2566 17.7306 7.54991 17.725H10.4999C10.7932 17.7306 11.0792 17.6329 11.3077 17.4489C11.5362 17.265 11.6928 17.0065 11.7499 16.7188L12.0687 15.1438C12.3537 15.0059 12.6293 14.8493 12.8937 14.675L14.4062 15.1875C14.5352 15.2299 14.6703 15.2511 14.8062 15.25C15.0254 15.2498 15.2407 15.1919 15.4304 15.0822C15.6202 14.9725 15.7778 14.8148 15.8874 14.625L17.3124 12.125C17.4583 11.8744 17.5125 11.5809 17.4658 11.2947C17.419 11.0085 17.2742 10.7474 17.0562 10.5563L15.8749 9.47501ZM14.7562 14L12.6124 13.275C12.1106 13.7001 11.537 14.0324 10.9187 14.2563L10.4749 16.5H7.52491L7.08116 14.2813C6.46768 14.051 5.89724 13.7193 5.39366 13.3L3.24366 14L1.76866 11.5L3.46866 10C3.3531 9.35305 3.3531 8.69072 3.46866 8.04376L1.76866 6.50001L3.24366 4.00001L5.38741 4.72501C5.88925 4.29994 6.46279 3.96767 7.08116 3.74376L7.52491 1.50001H10.4749L10.9187 3.71876C11.5321 3.94902 12.1026 4.28072 12.6062 4.70001L14.7562 4.00001L16.2312 6.50001L14.5312 8.00001C14.6467 8.64697 14.6467 9.3093 14.5312 9.95626L16.2312 11.5L14.7562 14Z"
    fill="#828282" />
  <path
    d="M9 12.75C8.25832 12.75 7.5333 12.5301 6.91661 12.118C6.29993 11.706 5.81928 11.1203 5.53545 10.4351C5.25162 9.74984 5.17736 8.99584 5.32206 8.26841C5.46675 7.54098 5.8239 6.8728 6.34835 6.34835C6.8728 5.8239 7.54098 5.46675 8.26841 5.32206C8.99584 5.17736 9.74984 5.25162 10.4351 5.53545C11.1203 5.81928 11.706 6.29993 12.118 6.91661C12.5301 7.5333 12.75 8.25832 12.75 9C12.755 9.49385 12.6614 9.98374 12.4748 10.441C12.2881 10.8982 12.012 11.3136 11.6628 11.6628C11.3136 12.012 10.8982 12.2881 10.441 12.4748C9.98374 12.6614 9.49385 12.755 9 12.75ZM9 6.5C8.66959 6.4923 8.34105 6.55171 8.03426 6.67462C7.72747 6.79753 7.44879 6.9814 7.2151 7.2151C6.9814 7.44879 6.79753 7.72747 6.67462 8.03426C6.55171 8.34105 6.4923 8.66959 6.5 9C6.4923 9.33041 6.55171 9.65895 6.67462 9.96574C6.79753 10.2725 6.9814 10.5512 7.2151 10.7849C7.44879 11.0186 7.72747 11.2025 8.03426 11.3254C8.34105 11.4483 8.66959 11.5077 9 11.5C9.33041 11.5077 9.65895 11.4483 9.96574 11.3254C10.2725 11.2025 10.5512 11.0186 10.7849 10.7849C11.0186 10.5512 11.2025 10.2725 11.3254 9.96574C11.4483 9.65895 11.5077 9.33041 11.5 9C11.5077 8.66959 11.4483 8.34105 11.3254 8.03426C11.2025 7.72747 11.0186 7.44879 10.7849 7.2151C10.5512 6.9814 10.2725 6.79753 9.96574 6.67462C9.65895 6.55171 9.33041 6.4923 9 6.5Z"
    fill="#828282" />
</svg>