<svg width="18" height="24" viewBox="0 0 18 24" fill="none" xmlns="http://www.w3.org/2000/svg">
  <path
    d="M1.61248 23.325C1.28096 23.325 0.963014 23.1933 0.728594 22.9589C0.494173 22.7245 0.362477 22.4065 0.362477 22.075L0.174977 3.75C0.159926 3.37793 0.218581 3.00656 0.34757 2.65724C0.47656 2.30792 0.673337 1.98755 0.926585 1.71455C1.17983 1.44155 1.48456 1.22132 1.82322 1.06651C2.16189 0.911702 2.52783 0.825377 2.89998 0.8125L14.8875 0.75C15.2601 0.756509 15.6278 0.836366 15.9696 0.98501C16.3114 1.13365 16.6205 1.34817 16.8794 1.61631C17.1382 1.88445 17.3417 2.20096 17.4782 2.54776C17.6147 2.89456 17.6816 3.26486 17.675 3.6375L17.85 21.9625C17.8521 22.1815 17.7967 22.3973 17.6892 22.5882C17.5817 22.779 17.4259 22.9383 17.2375 23.05C17.0474 23.1597 16.8319 23.2175 16.6125 23.2175C16.3931 23.2175 16.1775 23.1597 15.9875 23.05L8.86248 19.1L2.24998 23.1375C2.05417 23.2469 1.83632 23.3109 1.61248 23.325ZM8.81248 16.3875C9.02968 16.3879 9.24376 16.4393 9.43748 16.5375L15.325 19.8L15.175 3.6125C15.175 3.3625 15.0125 3.1875 14.9125 3.2L2.91248 3.3125C2.81248 3.3125 2.67498 3.475 2.67498 3.725L2.82498 19.85L8.17498 16.5625C8.36928 16.4512 8.5886 16.391 8.81248 16.3875Z"
    fill="#828282" />
</svg>