<svg width="26" height="23" viewBox="0 0 26 23" fill="none" xmlns="http://www.w3.org/2000/svg">
  <path
    d="M14.3875 5.15L13.675 8.7625C13.525 9.5 13.725 10.2625 14.2 10.8375C14.675 11.4125 15.375 11.75 16.125 11.75H23V13.1L19.7875 20.5H9.675C9.56328 20.4969 9.457 20.4511 9.37797 20.372C9.29894 20.293 9.25315 20.1867 9.25 20.075V10.275L14.3875 5.15ZM15.5 0.5L7.4875 8.5125C7.0125 8.9875 6.75 9.625 6.75 10.2875V20.075C6.75 21.6875 8.0625 23 9.675 23H19.8C20.6875 23 21.5 22.5375 21.95 21.7875L25.2875 14.1C25.425 13.7875 25.5 13.45 25.5 13.1V11.75C25.5 10.375 24.375 9.25 23 9.25H16.125L17.275 3.4375C17.3375 3.1625 17.3 2.8625 17.175 2.6125C16.8908 2.04951 16.5195 1.53486 16.075 1.0875L15.5 0.5ZM3 9.25H0.5V23H3C3.6875 23 4.25 22.4375 4.25 21.75V10.5C4.25 9.8125 3.6875 9.25 3 9.25Z"
    fill="#828282" />
</svg>