<svg width="14" height="14" viewBox="0 0 14 14" fill="none" xmlns="http://www.w3.org/2000/svg">
  <path
    d="M12.8334 6.16665H7.83337V1.16665C7.83337 0.945633 7.74558 0.733671 7.5893 0.577391C7.43302 0.421111 7.22105 0.333313 7.00004 0.333313C6.77903 0.333313 6.56707 0.421111 6.41079 0.577391C6.2545 0.733671 6.16671 0.945633 6.16671 1.16665V6.16665H1.16671C0.945694 6.16665 0.733732 6.25444 0.577452 6.41072C0.421172 6.567 0.333374 6.77897 0.333374 6.99998C0.333374 7.22099 0.421172 7.43295 0.577452 7.58923C0.733732 7.74551 0.945694 7.83331 1.16671 7.83331H6.16671V12.8333C6.16671 13.0543 6.2545 13.2663 6.41079 13.4226C6.56707 13.5788 6.77903 13.6666 7.00004 13.6666C7.22105 13.6666 7.43302 13.5788 7.5893 13.4226C7.74558 13.2663 7.83337 13.0543 7.83337 12.8333V7.83331H12.8334C13.0544 7.83331 13.2663 7.74551 13.4226 7.58923C13.5789 7.43295 13.6667 7.22099 13.6667 6.99998C13.6667 6.77897 13.5789 6.567 13.4226 6.41072C13.2663 6.25444 13.0544 6.16665 12.8334 6.16665Z"
    fill="#056cf2" />
</svg>