<svg t="1625880805045" class="icon" viewBox="0 0 1024 1024" version="1.1" xmlns="http://www.w3.org/2000/svg" p-id="5726"
  width="200" height="200">
  <path
    d="M566.4 512l318.4-318.4c16-16 16-38.4 0-54.4s-38.4-16-54.4 0L512 457.6 192 140.8c-14.4-16-38.4-16-52.8 0s-16 38.4 0 54.4L457.6 512 139.2 830.4c-16 16-16 38.4 0 54.4 8 6.4 16 11.2 27.2 11.2s19.2-3.2 27.2-11.2l320-318.4 320 316.8c8 6.4 19.2 11.2 27.2 11.2s19.2-3.2 27.2-11.2c16-16 16-38.4 0-54.4L566.4 512z"
    p-id="5727" fill="#707070"></path>
</svg>